# xmcd
#
# Track frame offsets: 
#        150
#        40610
#        58100
#        75562
#        98710
#        115315
#        194327
#        217657
#        269455
#        305462
#        323975
#
# Disc length: 4581 seconds
#
# Revision: 0
# Processed by: cddbd v1.5.2PL0 Copyright (c) Steve Scherf et al.
# Submitted via: ExactAudioCopyFreeDBPlugin 1.0
#
DISCID=9011e30b
DTITLE=The Four Nations Ensemble - Hydn- The Battle of the Nile
DYEAR=2001
DGENRE=Classical
TTITLE0=Trio No.19 (Son) in g, Hob XV:19: Andante - Presto
TTITLE1=Trio No.19 (Son) in g, Hob XV:19: Adagio M\\na non troppo
TTITLE2=Trio No.19 (Son) in g, Hob XV:19: Presto 
TTITLE3=Two Italian Duets, Hob XXVa: 2&1: Senti qui 
TTITLE4=Two Italian Duets, Hob XXVa: 2&1: Guarda qui 
TTITLE5=Andante With Vars in f, Hob XVII:6
TTITLE6=The Spirit's Song, Hob XXV1a: 41
TTITLE7=The Battle Of The Nile, Hob XXV1b:4
TTITLE8=Trio No.18 (Son) in A, Hob XV:18: Allegro moderato
TTITLE9=Trio No.18 (Son) in A, Hob XV:18: Andante
TTITLE10=Trio No.18 (Son) in A, Hob XV:18: Allegro
EXTD=
EXTT0=
EXTT1=
EXTT2=
EXTT3=
EXTT4=
EXTT5=
EXTT6=
EXTT7=
EXTT8=
EXTT9=
EXTT10=
PLAYORDER=
